<?xml version="1.0" encoding="UTF-8" standalone="no"?>
<svg
   version="1.0"
   width="112.23mm"
   height="53.099998mm"
   id="svg29"
   sodipodi:docname="logo-wide.svg"
   inkscape:version="1.3.2 (091e20e, 2023-11-25, custom)"
   xmlns:inkscape="http://www.inkscape.org/namespaces/inkscape"
   xmlns:sodipodi="http://sodipodi.sourceforge.net/DTD/sodipodi-0.dtd"
   xmlns="http://www.w3.org/2000/svg"
   xmlns:svg="http://www.w3.org/2000/svg">
  <sodipodi:namedview
     id="namedview29"
     pagecolor="#ffffff"
     bordercolor="#000000"
     borderopacity="0.25"
     inkscape:showpageshadow="2"
     inkscape:pageopacity="0.0"
     inkscape:pagecheckerboard="0"
     inkscape:deskcolor="#d1d1d1"
     inkscape:document-units="mm"
     inkscape:zoom="2.8284271"
     inkscape:cx="211.42493"
     inkscape:cy="87.858018"
     inkscape:window-width="1920"
     inkscape:window-height="991"
     inkscape:window-x="-9"
     inkscape:window-y="-9"
     inkscape:window-maximized="1"
     inkscape:current-layer="svg29" />
  <defs
     id="defs2">
    <clipPath
       clipPathUnits="userSpaceOnUse"
       id="clipEmfPath1">
      <path
         d="M 290.7049,8.1595762 L 424.13797,8.1595762 L 424.13797,178.87071 L 290.7049,178.87071 z"
         id="path1" />
    </clipPath>
    <clipPath
       clipPathUnits="userSpaceOnUse"
       id="clipEmfPath2">
      <path
         d="M 0,0 L 133.59306,0 L 133.59306,170.71113 L 0,170.71113 z"
         id="path2" />
    </clipPath>
    <pattern
       id="EMFhbasepattern"
       patternUnits="userSpaceOnUse"
       width="6"
       height="6"
       x="0"
       y="0" />
  </defs>
  <path
     style="fill:#ffffff;stroke-width:0.549164;fill-opacity:1"
     d="m 314.4699,114.03221 c -2.58226,-9.16469 -7.18813,-25.586742 -10.23526,-36.493457 -3.04714,-10.906726 -6.07353,-21.688166 -6.72531,-23.958768 -1.4928,-5.200453 -4.21479,-8.235502 -8.35518,-9.316097 -1.49568,-0.390342 -3.02737,-0.801667 -3.40377,-0.914036 -0.37995,-0.113394 -0.68436,-1.06955 -0.68436,-2.149555 v -1.945235 h 18.06715 18.06716 v 1.902986 c 0,2.086064 0.2384,1.980124 -6.29613,2.797877 -3.60237,0.450818 -5.20115,1.517118 -5.20115,3.468864 0,1.431031 15.29546,56.338991 16.36791,58.757871 0.60973,1.37525 -0.62286,4.71431 10.47206,-28.368488 5.13103,-15.299707 10.09414,-29.986595 11.02914,-32.637542 l 1.69997,-4.819884 h 2.89814 2.89812 l 10.99995,33.463807 c 12.78171,38.884257 11.48379,35.064387 11.80457,34.741627 0.43934,-0.44202 11.1806,-38.842999 13.44269,-48.058844 1.18433,-4.825006 2.15333,-9.698595 2.15333,-10.830211 0,-3.44528 -2.58701,-4.986442 -10.53916,-6.278492 -1.91229,-0.310709 -2.05309,-0.464102 -2.05309,-2.236585 v -1.902986 h 16.15094 16.15093 v 1.864541 c 0,1.762862 -0.15675,1.915749 -2.87431,2.803316 -6.33627,2.069461 -8.90336,4.922068 -11.09935,12.333884 -1.85409,6.257862 -20.23941,66.630507 -22.45909,73.749887 -0.13405,0.42998 -1.24047,0.68856 -2.94619,0.68856 h -2.73152 l -9.91233,-30.43417 c -5.45178,-16.738775 -10.53301,-32.355218 -11.29161,-34.703194 -1.24567,-3.855557 -2.38433,-5.522372 -2.38433,-3.490319 0,0.428305 -2.67441,8.546375 -5.94314,18.040168 -3.26873,9.493782 -8.47596,24.759785 -11.57163,33.924475 l -5.62849,16.66304 h -2.58583 -2.58583 z"
     id="path1-2" />
  <path
     style="fill:#ffffff;fill-opacity:1;stroke-width:0.549164"
     d="m 40.888642,114.52404 c -2.58226,-9.16469 -7.18813,-25.58674 -10.23526,-36.493455 -3.04714,-10.906726 -6.07353,-21.688166 -6.72531,-23.958768 -1.4928,-5.200453 -4.21479,-8.235502 -8.35518,-9.316097 -1.49568,-0.390342 -3.02737,-0.801667 -3.403771,-0.914036 -0.37995,-0.113394 -0.68436,-1.06955 -0.68436,-2.149555 v -1.945235 h 18.067151 18.06716 v 1.902986 c 0,2.086064 0.2384,1.980124 -6.29613,2.797877 -3.60237,0.450818 -5.20115,1.517118 -5.20115,3.468864 0,1.431031 15.29546,56.338989 16.36791,58.757869 0.60973,1.37525 -0.62286,4.71431 10.47206,-28.368486 5.13103,-15.299707 10.09414,-29.986595 11.02914,-32.637542 l 1.69997,-4.819884 h 2.89814 2.89812 l 10.99995,33.463807 c 12.781718,38.884255 11.483798,35.064385 11.804578,34.741625 0.43934,-0.44202 11.1806,-38.842997 13.44269,-48.058842 1.18433,-4.825006 2.15333,-9.698595 2.15333,-10.830211 0,-3.44528 -2.58701,-4.986442 -10.53916,-6.278492 -1.91229,-0.310709 -2.05309,-0.464102 -2.05309,-2.236585 v -1.902986 h 16.15094 16.15093 v 1.864541 c 0,1.762862 -0.15675,1.915749 -2.87431,2.803316 -6.33627,2.069461 -8.90336,4.922068 -11.09935,12.333884 -1.85409,6.257862 -20.23941,66.630505 -22.45909,73.749885 -0.13405,0.42998 -1.24048,0.68856 -2.9462,0.68856 h -2.731518 l -9.91233,-30.43417 c -5.45178,-16.738773 -10.53301,-32.355216 -11.29161,-34.703192 -1.24567,-3.855557 -2.38433,-5.522372 -2.38433,-3.490319 0,0.428305 -2.67441,8.546375 -5.94314,18.040168 -3.26873,9.493782 -8.47596,24.759783 -11.57163,33.924473 l -5.62849,16.66304 h -2.58583 -2.58583 z"
     id="path1-2-4" />
  <path
     style="fill:#ffffff;fill-opacity:1;stroke-width:0.551424"
     d="m 71.905979,174.92491 c -1.427716,-0.13432 -2.325241,-0.38186 -3.441913,-0.94925 -3.511292,-1.78414 -5.292948,-5.47818 -4.58909,-9.51494 0.340469,-1.95258 1.033936,-3.32818 2.335572,-4.63291 1.811267,-1.81554 3.970435,-2.64336 6.894608,-2.64336 2.946647,0 5.100461,0.81857 6.887963,2.61782 3.384659,3.40691 3.385345,9.20578 0.002,12.56614 -2.015641,2.00165 -4.761549,2.86952 -8.088604,2.5565 z m 2.500361,-7.51862 c 0.428675,-0.38554 0.518325,-0.59586 0.581651,-1.36446 0.07146,-0.86775 0.04956,-0.9342 -0.488272,-1.4755 -0.496568,-0.49983 -0.65922,-0.56684 -1.376062,-0.56684 -1.074102,0 -1.754299,0.56431 -1.88776,1.56615 -0.182351,1.36872 0.580462,2.29643 1.888292,2.29643 0.625411,0 0.873383,-0.0882 1.282151,-0.45578 z m 83.36081,7.51548 c -3.77996,-0.34503 -6.61801,-2.49714 -7.78376,-5.90246 -0.30154,-0.88075 -0.36864,-1.4137 -0.36864,-2.92759 0,-1.51388 0.0672,-2.04684 0.36864,-2.92758 0.93717,-2.73766 2.88454,-4.63058 5.70519,-5.54572 1.05573,-0.34253 1.60024,-0.41705 3.11787,-0.42673 3.63466,-0.0232 6.29712,1.23398 8.01914,3.78643 2.52079,3.73641 1.7807,9.29239 -1.59291,11.95863 -2.03845,1.61102 -4.47252,2.25822 -7.46553,1.98502 z m 2.16376,-7.30383 c 0.87282,-0.45433 1.20712,-1.69351 0.71518,-2.65103 -0.3546,-0.69026 -0.85064,-0.96742 -1.73132,-0.96742 -0.67372,0 -0.85386,0.0745 -1.32349,0.5472 -0.47885,0.482 -0.54364,0.64693 -0.54364,1.38409 0,0.73716 0.0649,0.90209 0.54364,1.38409 0.44356,0.4465 0.66574,0.5472 1.20711,0.5472 0.36494,0 0.87454,-0.10986 1.13252,-0.24413 z m 52.63731,7.16264 c -2.1411,-0.56472 -3.75093,-1.5078 -5.25991,-3.08144 -1.98219,-2.06713 -2.93587,-4.37717 -3.05655,-7.40375 -0.092,-2.30879 0.19771,-3.79178 1.08887,-5.57265 1.35519,-2.70819 3.55683,-4.63415 6.50543,-5.69078 1.34189,-0.48087 4.37877,-0.59503 6.02459,-0.22647 4.05086,0.90715 7.48938,4.39621 8.3467,8.46931 0.38584,1.83318 0.24021,4.51343 -0.33912,6.24161 -0.98104,2.92643 -3.27729,5.46488 -6.06669,6.70658 -1.99173,0.88663 -5.09113,1.12522 -7.24332,0.55759 z m 4.03644,-9.68152 c 1.67626,-1.32722 0.8071,-4.15624 -1.27694,-4.15624 -2.10961,0 -2.96283,2.8214 -1.26074,4.16903 0.59828,0.47372 1.9317,0.46699 2.53768,-0.0129 z m 44.39816,9.81677 c -4.15931,-0.35654 -7.30797,-2.8345 -8.25574,-6.49715 -0.31874,-1.23175 -0.31246,-3.55843 0.0131,-4.89173 0.71956,-2.94603 3.00314,-5.26064 5.9777,-6.05896 1.39588,-0.37462 4.04501,-0.3739 5.43627,0.002 3.01426,0.81329 5.35196,3.17001 6.15924,6.20933 0.12914,0.48618 0.28174,1.48144 0.33911,2.21172 l 0.10435,1.32775 h -4.50052 c -2.4753,0 -4.50052,0.0583 -4.50052,0.12944 0,0.0713 0.21026,0.46317 0.46726,0.87108 0.87813,1.39376 2.76365,2.0985 4.73484,1.76972 1.21826,-0.2032 2.69232,-0.84472 3.31204,-1.44143 l 0.43972,-0.42338 v 1.59237 1.59236 l -0.9995,0.98164 c -2.10261,2.06503 -5.02206,2.94337 -8.72746,2.62574 z m 4.28716,-11.1175 c -0.006,-0.65266 -0.59957,-1.7125 -1.14638,-2.04809 -1.27233,-0.78079 -2.60125,0.0408 -2.93141,1.81223 l -0.11144,0.59797 h 2.09637 c 2.06847,0 2.09633,-0.005 2.09286,-0.36211 z m 84.13225,11.1175 c -4.17727,-0.35809 -7.30284,-2.82667 -8.24726,-6.51369 -0.32088,-1.25276 -0.32569,-3.56674 -0.0102,-4.81143 0.76828,-3.02904 3.01369,-5.32328 5.99242,-6.12272 1.39587,-0.37462 4.04502,-0.3739 5.43629,0.002 3.25547,0.87838 5.6114,3.45118 6.30498,6.88533 0.13779,0.68228 0.25052,1.60568 0.25052,2.05201 v 0.81146 h -4.47691 c -2.46232,0 -4.47695,0.048 -4.47695,0.10658 0,0.0586 0.17835,0.41287 0.39632,0.78725 0.83344,1.43152 2.74808,2.18948 4.74918,1.88011 1.23416,-0.1908 2.73435,-0.83437 3.36867,-1.44513 l 0.43969,-0.42338 v 1.59237 1.59236 l -0.99949,0.98164 c -2.10262,2.06503 -5.02206,2.94337 -8.72745,2.62574 z m 4.28718,-11.1175 c -0.006,-0.65266 -0.59958,-1.7125 -1.14641,-2.04809 -1.27229,-0.78079 -2.60121,0.0408 -2.93138,1.81223 l -0.11145,0.59797 h 2.09636 c 2.06848,0 2.09633,-0.005 2.09288,-0.36211 z m 16.10443,11.10767 c -4.17667,-0.35013 -7.35664,-2.90709 -8.25973,-6.64158 -0.26707,-1.10432 -0.23229,-3.66702 0.0651,-4.79069 0.70637,-2.6698 2.59782,-4.7854 5.13154,-5.73962 1.46558,-0.55194 3.58526,-0.73527 5.18978,-0.44888 1.83941,0.32831 2.9286,0.77379 4.11753,1.68402 2.13182,1.63208 3.19684,3.75381 3.47422,6.92131 l 0.11627,1.32775 H 375.155 c -3.66573,0 -4.49359,0.0401 -4.49359,0.21726 0,0.41288 0.94831,1.53302 1.64657,1.9449 1.02298,0.60345 2.28709,0.81963 3.55554,0.60806 1.21827,-0.2032 2.69231,-0.84472 3.31206,-1.44144 l 0.4397,-0.42336 v 1.56203 1.56203 l -0.99934,1.0029 c -2.12,2.12756 -4.94201,2.97887 -8.80198,2.65531 z m 4.29083,-11.34908 c -0.34521,-1.89716 -2.09619,-2.71414 -3.30944,-1.54414 -0.42985,0.41452 -0.7706,1.23754 -0.77259,1.866 -5.4e-4,0.25396 0.20518,0.28166 2.09548,0.28166 h 2.09637 z m -339.440795,9.57596 c -0.320113,-0.9073 -2.047125,-5.81398 -3.837803,-10.90373 l -3.255777,-9.2541 4.649377,-0.0427 c 2.557159,-0.0235 4.697481,0.0128 4.75626,0.0805 0.0588,0.0677 0.638545,1.62292 1.288336,3.45593 0.649803,1.83298 1.227235,3.28145 1.283178,3.2188 0.0559,-0.0626 0.65938,-1.6167 1.34094,-3.45343 l 1.239211,-3.33952 h 3.378321 3.378331 l 1.353699,3.48145 c 1.297602,3.33717 1.361727,3.46223 1.547109,3.01764 0.106369,-0.25509 0.647844,-1.82173 1.203282,-3.4814 l 1.009905,-3.01761 4.676792,-4e-5 c 2.572239,-2e-5 4.676804,0.0524 4.676804,0.11658 0,0.0641 -1.628844,4.9889 -3.619657,10.94396 l -3.619658,10.82734 h -3.556657 -3.55667 l -1.473984,-3.66141 c -0.810691,-2.01379 -1.594985,-3.94576 -1.742893,-4.2933 l -0.26892,-0.6319 -1.585298,4.2933 -1.585295,4.29331 h -3.548445 -3.548462 z m 50.59296,-7.04371 v -8.69334 l 4.436952,0.0428 4.436962,0.0428 0.04567,1.76662 0.04567,1.7666 0.415835,-0.7205 c 1.469007,-2.54529 3.979189,-3.56004 6.214596,-2.51226 1.47985,0.69362 2.18753,1.90267 2.18753,3.7373 0,1.35197 -0.36243,2.30099 -1.1746,3.07571 -1.50246,1.43318 -3.756924,1.48425 -5.713642,0.12942 l -0.816515,-0.56536 -0.390576,0.60428 c -0.717795,1.11056 -0.799878,1.76116 -0.761513,6.03605 l 0.03572,3.98328 h -4.481136 -4.481141 z m 19.346725,-2.25063 v -10.94396 h 4.397 4.39699 v 10.94396 10.94399 h -4.39699 -4.397 z m 19.38474,10.76528 c -4.88751,-0.81957 -7.92911,-4.45101 -7.66865,-9.15586 0.21511,-3.88626 2.55193,-6.86557 6.11836,-7.80061 1.15137,-0.30187 3.35883,-0.31532 4.57203,-0.0278 l 0.90117,0.2135 0.11497,-2.46918 0.11496,-2.46921 h 4.38016 4.38014 v 10.94397 10.94399 l -6.03587,-0.0188 c -3.3197,-0.0103 -6.41447,-0.0823 -6.87727,-0.1599 z m 4.08408,-8.04574 c 0.051,-2.12774 0.003,-2.22536 -1.13767,-2.35488 -1.32852,-0.15072 -2.18495,0.73613 -2.18495,2.26263 0,1.30456 0.96409,2.0541 2.55827,1.98894 l 0.7195,-0.0295 z m 43.04564,-0.46636 v -8.6908 h 4.39698 4.39699 v 1.0461 c 0,1.06381 0.11422,1.24793 0.49087,0.79114 0.42319,-0.51326 1.66003,-1.24988 2.5854,-1.53979 1.1674,-0.36572 3.41051,-0.39627 4.52947,-0.0617 1.23519,0.36933 2.24043,1.10095 2.86669,2.08638 0.98542,1.55061 1.03969,2.01482 1.03969,8.89704 v 6.16241 h -4.15133 -4.15133 l -0.0457,-5.72749 -0.0457,-5.72749 -0.4486,-0.38825 c -0.52054,-0.45051 -1.27991,-0.50618 -2.11479,-0.15508 l -0.55447,0.2332 v 5.88255 5.88256 h -4.39698 -4.39699 z m 58.36001,0 v -8.6908 h 4.397 4.39698 v 1.0461 c 0,1.11156 0.0974,1.23833 0.55796,0.72609 0.50002,-0.55615 1.72652,-1.25339 2.70052,-1.53519 1.42555,-0.41242 3.88338,-0.281 5.06963,0.27105 1.0422,0.48502 1.92143,1.31481 2.40785,2.27245 0.72466,1.42673 0.77224,1.94566 0.77424,8.44512 l 0.002,6.15599 h -4.15715 -4.15716 v -5.47998 c 0,-5.82923 -0.0423,-6.18277 -0.7906,-6.58581 -0.43387,-0.23374 -1.20313,-0.20572 -1.85272,0.0674 l -0.55448,0.2332 v 5.88255 5.88256 h -4.39698 -4.397 z m 58.60415,8.40916 c -0.13341,-0.342 -4.0522,-11.45517 -6.00153,-17.01949 -0.77523,-2.21294 -1.45953,-4.15026 -1.52066,-4.30516 -0.10431,-0.2644 0.17775,-0.28165 4.60566,-0.28165 h 4.71679 l 0.71314,1.97152 c 0.39224,1.08434 0.95147,2.64724 1.24273,3.4731 0.34107,0.96708 0.57305,1.4234 0.65169,1.28194 0.10417,-0.18736 1.09593,-2.7782 2.25267,-5.88478 l 0.31579,-0.84811 3.38069,0.0434 3.3807,0.0434 1.32156,3.36448 c 0.72686,1.85048 1.35087,3.39401 1.38673,3.43008 0.0358,0.0361 0.58225,-1.49605 1.21429,-3.40473 l 1.14917,-3.4703 h 4.71521 c 3.83778,0 4.70556,0.0397 4.6635,0.2136 -0.0284,0.11748 -1.67059,5.04335 -3.64925,10.94638 l -3.59753,10.73279 -3.57333,-0.0427 -3.57334,-0.0427 -1.65618,-4.16412 c -0.91091,-2.29026 -1.68586,-4.19396 -1.72209,-4.23043 -0.0362,-0.0365 -0.77683,1.8545 -1.64577,4.20216 l -1.57987,4.26849 -3.54045,0.002 c -3.22461,0.002 -3.55026,-0.023 -3.65032,-0.27946 z m 29.65538,-10.66234 v -10.94396 h 4.47693 4.47693 v 3.30451 3.30449 l 0.84672,-0.64347 c 1.38246,-1.05063 2.21842,-1.35142 3.96805,-1.42778 3.28957,-0.14356 5.40224,1.19687 6.31171,4.00458 0.24521,0.75705 0.2912,1.69917 0.34717,7.10917 l 0.0646,6.23645 h -4.23114 -4.23114 l 0.021,-5.35129 c 0.023,-5.85267 -0.0232,-6.20405 -0.87298,-6.64639 -0.63316,-0.32957 -1.13242,-0.29136 -1.76053,0.13475 l -0.5433,0.36858 0.0579,5.74717 0.0579,5.74718 h -4.49488 -4.49487 z m 64.59573,0 v -10.94396 h 4.397 4.39699 v 10.94396 10.94399 h -4.39699 -4.397 z"
     id="path1-29" />
  <path
     style="fill:#ffffff;fill-opacity:1;stroke-width:0.549866"
     d="m 157.06393,133.75853 c -2.97027,-0.28515 -6.2529,-1.12251 -9.03217,-2.30402 -9.37246,-3.98437 -16.34966,-12.50297 -18.33631,-22.38715 -1.3783,-6.85744 -0.40807,-13.805645 2.8113,-20.132804 2.66252,-5.232782 7.1293,-9.916788 12.20737,-12.80105 2.23547,-1.269708 5.06717,-2.446337 7.20224,-2.992672 0.54266,-0.138859 0.746,-0.303892 1.08612,-0.881528 0.56742,-0.963665 2.03906,-2.521059 2.88647,-3.054637 l 0.69434,-0.43721 0.10634,-1.447028 c 0.10179,-1.38465 0.33503,-3.047582 0.51075,-3.641307 0.072,-0.243388 -0.0372,-0.27929 -0.8501,-0.279407 -1.50842,-2.15e-4 -4.33316,-0.298833 -6.14376,-0.649493 -2.96098,-0.573448 -5.68818,-1.613854 -8.24025,-3.143584 -1.1504,-0.689547 -1.28974,-0.545048 2.21929,-2.301369 l 2.55716,-1.279908 1.61165,0.491781 c 2.48463,0.75817 4.07728,0.997859 7.22349,1.08713 2.38972,0.06781 3.25842,0.02602 5.05069,-0.242938 3.74108,-0.5614 6.71749,-1.643644 8.32487,-3.026964 l 0.70877,-0.609974 2.81723,0.540798 c 1.54947,0.297438 2.84469,0.56813 2.87825,0.601536 0.15128,0.150577 -0.92934,1.689139 -1.87034,2.662891 -1.85138,1.915854 -4.24428,3.317274 -7.54145,4.416728 -0.81536,0.271884 -1.77338,0.540635 -2.12895,0.597224 -0.6013,0.0957 -0.63905,0.132018 -0.54028,0.519481 0.30137,1.182119 0.54662,2.827924 0.64731,4.343865 0.10802,1.626115 0.12991,1.703359 0.5535,1.952409 0.60835,0.357665 2.14839,2.039949 2.65478,2.899976 0.34012,0.577636 0.54346,0.742669 1.08611,0.881528 2.12693,0.544246 4.97276,1.725186 7.15889,2.970729 5.12752,2.921391 9.58846,7.590715 12.25073,12.822993 4.56597,8.973637 4.56597,19.110704 0,28.084354 -5.73468,11.27062 -17.93403,17.95208 -30.56404,16.73962 z m 6.97929,-16.64569 c 4.97033,-1.46168 8.63053,-5.09066 10.15329,-10.06672 0.40309,-1.31714 0.43954,-1.6546 0.43954,-4.06938 0,-2.40398 -0.0376,-2.75531 -0.43132,-4.036948 -1.24733,-4.059707 -3.69677,-7.041423 -7.36413,-8.964394 -1.39434,-0.731124 -3.08993,-1.330174 -3.26679,-1.15416 -0.35665,0.354974 -0.9781,12.076362 -1.01913,19.222282 l -0.002,0.35908 h -5.15405 -5.15405 l 0.0957,-4.66784 c 0.0978,-4.766737 0.35265,-8.012091 0.91676,-11.675248 0.1746,-1.133781 0.28443,-2.094274 0.24407,-2.134441 -0.0402,-0.04017 -0.41936,0.126984 -0.84222,0.371437 -3.23449,1.869793 -5.56922,4.868752 -6.72894,8.643284 -0.39376,1.281638 -0.4313,1.632968 -0.4313,4.036948 0,2.41478 0.0364,2.75224 0.43952,4.06938 1.48308,4.84638 5.13579,8.55069 9.83127,9.97019 1.78662,0.54011 2.54276,0.63007 4.77891,0.56861 1.65617,-0.0455 2.37417,-0.14251 3.49484,-0.47208 z"
     id="path1-0" />
  <path
     style="fill:#ffffff;fill-opacity:1;stroke-width:0.552374"
     d="m 242.98887,139.17421 c -0.85805,-0.0591 -0.85857,-0.0595 -0.80702,-0.5694 l 0.0516,-0.51027 -0.96842,-0.12134 c -1.18622,-0.14863 -1.37194,-0.0873 -1.37194,0.45286 0,0.42132 -0.004,0.42285 -0.91303,0.31034 -1.25466,-0.15538 -1.28956,-0.17789 -1.218,-0.78546 0.0599,-0.50844 0.0347,-0.53697 -0.55752,-0.63107 -0.34113,-0.0543 -0.84581,-0.1434 -1.12152,-0.19819 -0.46409,-0.0923 -0.50896,-0.0616 -0.60475,0.41317 -0.0937,0.4644 -0.14541,0.50275 -0.54785,0.40647 -1.80126,-0.43099 -1.76979,-0.40816 -1.50707,-1.09308 0.13944,-0.3635 0.0959,-0.40161 -0.76667,-0.67091 -0.50297,-0.15705 -0.99663,-0.31668 -1.09701,-0.35474 -0.10039,-0.0381 -0.26003,0.15117 -0.35477,0.42054 -0.20406,0.58019 -0.24333,0.58482 -1.3822,0.16247 l -0.88246,-0.32726 0.21993,-0.52172 0.21993,-0.52172 -1.05397,-0.45511 c -0.8721,-0.37658 -1.07868,-0.41642 -1.19719,-0.23088 -0.0788,0.12332 -0.14434,0.30996 -0.14571,0.41475 -0.001,0.1048 -0.0702,0.23202 -0.15297,0.28274 -0.16027,0.0982 -1.94775,-0.62898 -1.94775,-0.79237 0,-0.0532 0.10764,-0.30306 0.2392,-0.55522 0.23733,-0.45488 0.23384,-0.46155 -0.44386,-0.84998 -1.44948,-0.83075 -1.36773,-0.82068 -1.68652,-0.20769 l -0.28777,0.55333 -0.93181,-0.56563 -0.9318,-0.56565 0.32918,-0.52792 0.32917,-0.52792 -0.76931,-0.54512 c -0.42311,-0.29981 -0.85389,-0.59583 -0.95727,-0.6578 -0.11349,-0.068 -0.32491,0.10693 -0.53356,0.44156 l -0.3456,0.55426 -0.79772,-0.56804 c -0.43874,-0.31243 -0.83465,-0.62729 -0.8798,-0.69969 -0.0452,-0.0724 0.097,-0.34257 0.31582,-0.60035 l 0.39789,-0.4687 -0.85605,-0.73253 -0.85604,-0.73255 -0.49651,0.49213 -0.49651,0.49213 -0.80476,-0.70425 -0.80477,-0.70427 0.5019,-0.52093 0.5019,-0.52092 -0.71185,-0.71892 c -0.39152,-0.3954 -0.78354,-0.71892 -0.87117,-0.71892 -0.0876,0 -0.3701,0.19797 -0.62773,0.43994 l -0.46841,0.43995 -0.70909,-0.79382 -0.7091,-0.79382 0.50342,-0.51482 0.50341,-0.51481 -0.62597,-0.80428 c -0.67185,-0.86324 -0.87228,-0.95846 -1.1982,-0.56922 -0.52747,0.62996 -0.73766,0.58174 -1.43079,-0.32821 l -0.66482,-0.87277 0.6392,-0.41927 0.63921,-0.41927 -0.57902,-0.86438 c -0.31846,-0.47539 -0.63722,-0.86436 -0.70835,-0.86436 -0.0711,0 -0.39079,0.1529 -0.71035,0.33979 -0.31957,0.18689 -0.60048,0.31287 -0.62424,0.27996 -0.0237,-0.0329 -0.28667,-0.4443 -0.58424,-0.91421 -0.58473,-0.92341 -0.59522,-0.88356 0.36906,-1.40057 0.24979,-0.13393 0.43095,-0.29327 0.40259,-0.3541 -0.28705,-0.61562 -0.96111,-1.79039 -1.02729,-1.79039 -0.0464,0 -0.37063,0.14472 -0.72044,0.32161 l -0.63602,0.32161 -0.48738,-0.95697 c -0.26805,-0.52634 -0.48738,-0.98408 -0.48738,-1.01723 0,-0.0332 0.30869,-0.19332 0.68597,-0.35595 0.37729,-0.16264 0.70484,-0.30627 0.7279,-0.31915 0.058,-0.0324 -0.63527,-1.72345 -0.77138,-1.88165 -0.0607,-0.0705 -0.41636,-0.007 -0.79044,0.14153 -0.76444,0.30317 -0.82322,0.26905 -1.19971,-0.69648 -0.37765,-0.96852 -0.34197,-1.10787 0.33889,-1.32352 0.33289,-0.10544 0.65873,-0.23961 0.72407,-0.29815 0.0938,-0.0841 -0.29371,-1.85302 -0.45246,-2.06551 -0.0209,-0.028 -0.40672,0.0576 -0.85736,0.19029 l -0.81935,0.24118 -0.16272,-0.59897 c -0.43814,-1.61276 -0.45221,-1.56012 0.47591,-1.7808 0.73917,-0.17576 0.82566,-0.23882 0.74032,-0.53974 -0.0532,-0.1874 -0.14304,-0.65532 -0.19975,-1.03981 l -0.1031,-0.69908 -0.85345,0.0994 c -0.46939,0.0547 -0.88874,0.0427 -0.93188,-0.0264 -0.0432,-0.0693 -0.12953,-0.57326 -0.19195,-1.120128 l -0.1135,-0.994317 h 0.57257 c 1.103,0 1.22029,-0.196324 0.97958,-1.639795 l -0.10005,-0.599923 h -0.84361 -0.84361 l -0.10295,-0.976301 c -0.0566,-0.536989 -0.0627,-1.04092 -0.0135,-1.119861 0.0492,-0.07892 0.44836,-0.143511 0.88699,-0.143511 h 0.79749 V 93.778222 93.05831 h -0.88771 -0.88772 v -1.131458 -1.131468 l 0.92807,0.04324 0.92808,0.04324 0.0914,-1.031559 c 0.0503,-0.567357 0.07,-1.059973 0.0439,-1.094695 -0.0261,-0.03472 -0.41224,-0.09789 -0.85804,-0.140347 -0.90308,-0.08598 -0.90699,-0.0945 -0.70751,-1.537055 0.10074,-0.728453 0.11444,-0.743521 0.60527,-0.665557 1.36913,0.217481 1.28086,0.271701 1.47793,-0.907835 l 0.17948,-1.074211 -0.86007,-0.176974 c -0.47303,-0.09734 -0.85866,-0.261865 -0.85695,-0.365615 0.002,-0.103739 0.0983,-0.548585 0.21454,-0.988527 0.22878,-0.865608 0.3636,-0.925312 1.49402,-0.661611 0.49805,0.116188 0.50278,0.11113 0.76667,-0.821088 0.14604,-0.515896 0.26553,-1.009652 0.26553,-1.09723 0,-0.08753 -0.36316,-0.251486 -0.80702,-0.364241 -0.44386,-0.112754 -0.80702,-0.257521 -0.80702,-0.321703 0,-0.220208 0.5271,-1.693488 0.65653,-1.835044 0.0738,-0.08066 0.41278,-0.02911 0.78883,0.119989 0.36268,0.143829 0.72173,0.261515 0.79788,0.261515 0.0761,0 0.29972,-0.427377 0.4968,-0.949733 0.33256,-0.881412 0.337,-1.289988 0.014,-1.289988 -0.0727,0 -0.3915,-0.107396 -0.70847,-0.238672 l -0.57629,-0.238662 0.41913,-0.921192 c 0.23052,-0.506649 0.44627,-0.952761 0.47942,-0.991352 0.0332,-0.03859 0.38749,0.08743 0.78739,0.27997 0.3999,0.192566 0.76042,0.350129 0.80116,0.350129 0.0964,0 1.08414,-1.938328 1.01735,-1.996427 -0.028,-0.02438 -0.39176,-0.215053 -0.80835,-0.423761 l -0.75742,-0.379464 0.57213,-0.925525 0.57212,-0.925526 0.69825,0.405587 c 0.38404,0.223081 0.72951,0.405598 0.76772,0.405598 0.18059,0 1.25804,-1.813979 1.12896,-1.900715 -0.0811,-0.05446 -0.4154,-0.267165 -0.74298,-0.472643 l -0.59561,-0.373613 0.27936,-0.468734 c 0.15365,-0.257812 0.43728,-0.665044 0.63029,-0.904973 l 0.35093,-0.436228 0.71313,0.507616 0.71312,0.507605 0.68576,-0.87029 0.68576,-0.870288 -0.51955,-0.438482 c -0.28576,-0.241167 -0.59254,-0.485757 -0.68175,-0.543537 -0.0955,-0.0618 0.045,-0.364357 0.34142,-0.7353 0.88995,-1.113748 0.93547,-1.126825 1.6189,-0.465359 l 0.60451,0.585076 0.79375,-0.798766 0.79376,-0.798766 -0.63389,-0.643437 -0.63389,-0.643438 0.759,-0.752312 0.75902,-0.752313 0.63861,0.618087 0.63861,0.618088 0.81516,-0.676476 c 0.87238,-0.723955 0.8922,-0.883975 0.18776,-1.515864 -0.18577,-0.166637 -0.33776,-0.385006 -0.33776,-0.485274 0,-0.100259 0.37175,-0.463299 0.82611,-0.806736 l 0.8261,-0.624442 0.29228,0.391592 c 0.8187,1.096881 0.65294,1.055264 1.5784,0.396255 0.45926,-0.327033 0.83502,-0.666727 0.83502,-0.754886 0,-0.08811 -0.13335,-0.351358 -0.29634,-0.584913 -0.16299,-0.233555 -0.34665,-0.511097 -0.40814,-0.616771 -0.0706,-0.121275 0.2184,-0.401488 0.78369,-0.759906 0.49251,-0.312274 0.92349,-0.567784 0.95771,-0.567784 0.0342,0 0.25164,0.320351 0.48313,0.711875 l 0.4209,0.711865 0.96322,-0.568722 0.96323,-0.568732 -0.41997,-0.710298 c -0.23098,-0.390664 -0.39299,-0.734381 -0.36001,-0.763812 0.14468,-0.129129 1.75781,-0.891907 1.88623,-0.891907 0.0782,0 0.27326,0.28796 0.43338,0.639916 0.16013,0.351958 0.3437,0.639918 0.40795,0.639918 0.248,0 1.93211,-0.802298 1.9267,-0.917866 -0.003,-0.06712 -0.10953,-0.301983 -0.23639,-0.521949 -0.37819,-0.65574 -0.29464,-0.933669 0.36316,-1.208087 0.87591,-0.365393 1.49299,-0.467323 1.49299,-0.246593 0,0.101815 0.1018,0.426623 0.22623,0.721798 l 0.22625,0.536689 0.99518,-0.341851 c 1.09469,-0.37603 1.02857,-0.222151 0.70114,-1.631858 -0.0665,-0.286412 0.056,-0.366687 0.92533,-0.606249 0.5511,-0.151867 1.02849,-0.249871 1.06087,-0.217781 0.0323,0.03211 0.15716,0.339762 0.27729,0.683711 l 0.21844,0.625371 0.20843,-0.637393 c 0.89464,-2.735838 3.56492,-6.031307 5.99084,-7.393448 l 0.74226,-0.416778 0.18792,-2.60963 c 0.1642,-2.280238 0.47133,-4.469648 0.74835,-5.334753 0.0781,-0.244029 -0.18459,-0.280482 -2.70045,-0.374628 -6.11421,-0.228806 -11.46474,-1.355263 -16.18354,-3.407169 -1.84624,-0.8028 -4.98496,-2.626208 -4.80277,-2.790097 0.0671,-0.06035 1.88572,-0.989166 4.04131,-2.063947 l 3.91926,-1.954142 1.56848,0.493794 c 3.30481,1.040447 6.09696,1.529792 10.12152,1.773879 8.42025,0.510692 17.1934,-1.459913 21.338,-4.792889 0.54983,-0.442176 1.1092,-0.80395 1.24303,-0.80395 0.39382,0 7.71266,1.415306 7.80811,1.509916 0.13257,0.131401 -0.92529,1.746807 -1.81723,2.775009 -1.03476,1.192825 -2.70229,2.640319 -4.16086,3.611825 -2.58294,1.720393 -7.49998,3.735729 -10.94056,4.484184 l -1.21864,0.265095 0.35476,1.39602 c 0.41067,1.616083 0.65182,3.476671 0.80653,6.222674 l 0.10969,1.947015 0.74455,0.47948 c 2.08245,1.341036 4.59451,4.610605 5.34237,6.95336 0.22192,0.695201 0.47798,0.703141 0.70018,0.02166 0.0843,-0.25847 0.17309,-0.493476 0.19736,-0.52224 0.0242,-0.02873 0.49154,0.07215 1.03839,0.224212 0.94799,0.263654 0.98909,0.29587 0.88318,0.692222 -0.20866,0.780825 -0.16578,0.856023 0.65328,1.14553 1.13627,0.401622 1.31523,0.381476 1.50915,-0.169895 0.19999,-0.568635 0.32865,-0.578588 1.42314,-0.110056 0.63484,0.271759 0.80334,0.413509 0.70549,0.593502 -0.42782,0.786985 -0.37574,0.894459 0.64639,1.333831 0.54051,0.232346 1.0124,0.422446 1.04866,0.422446 0.0363,0 0.17859,-0.215973 0.31631,-0.479946 0.13772,-0.263963 0.30301,-0.479258 0.3673,-0.478435 0.0643,8.22e-4 0.50044,0.219501 0.96919,0.48595 0.82145,0.466927 0.84334,0.497093 0.60526,0.834002 -0.38651,0.546951 -0.30891,0.693111 0.6539,1.231696 0.94868,0.530683 1.23057,0.498882 1.44243,-0.162729 0.0881,-0.275182 0.17581,-0.250993 1.04708,0.28883 l 0.95092,0.589159 -0.31524,0.505555 -0.31523,0.505556 0.90452,0.617468 0.90452,0.617469 0.36323,-0.418558 0.36324,-0.418567 0.83121,0.628242 c 0.45717,0.345536 0.83121,0.67433 0.83121,0.730648 0,0.05629 -0.1493,0.259911 -0.33179,0.452448 l -0.3318,0.350071 0.85042,0.737361 0.85042,0.737369 0.41686,-0.395858 0.41686,-0.395848 0.76436,0.76918 c 0.76123,0.766037 0.76301,0.770381 0.43645,1.06331 -0.46288,0.415212 -0.41954,0.568723 0.38015,1.346647 l 0.70806,0.688769 0.4447,-0.288801 0.44471,-0.28882 0.70157,0.793205 0.70157,0.793196 -0.42401,0.343601 -0.424,0.343601 0.71942,0.875367 0.71942,0.875377 0.41345,-0.298521 0.41346,-0.29853 0.62215,0.895368 0.62215,0.895369 -0.36078,0.289565 c -0.19843,0.159266 -0.36079,0.332866 -0.36079,0.38577 0,0.05291 0.23606,0.456742 0.52457,0.89741 0.50951,0.778223 0.62344,0.830122 1.25263,0.570617 0.17646,-0.07273 0.38999,0.162932 0.77269,0.85292 l 0.52885,0.953486 -0.36919,0.190476 c -0.20305,0.104766 -0.3921,0.209435 -0.4201,0.232608 -0.028,0.02311 0.17194,0.479722 0.44432,1.014554 0.47481,0.932296 0.51192,0.9649 0.89898,0.790101 0.22204,-0.100277 0.43729,-0.149043 0.47833,-0.108373 0.0411,0.04072 0.25844,0.485951 0.48311,0.989495 l 0.4085,0.915534 -0.40309,0.182034 c -0.48783,0.220314 -0.48712,0.20452 -0.0588,1.314013 0.31971,0.828091 0.37899,0.889149 0.82933,0.854128 0.44668,-0.03472 0.50777,0.02553 0.77299,0.762187 0.38616,1.072596 0.37883,1.177381 -0.0905,1.294138 -0.47932,0.119244 -0.46832,0.01209 -0.13038,1.269136 0.26306,0.978537 0.28954,1.012727 0.71856,0.927683 0.48102,-0.09536 0.44114,-0.16566 0.76555,1.349595 0.13814,0.645246 0.12464,0.686341 -0.25671,0.781213 -0.38648,0.09613 -0.39809,0.135366 -0.29114,0.983797 0.15506,1.23012 0.22074,1.353736 0.66109,1.244193 0.39925,-0.09932 0.39227,-0.116981 0.61242,1.549077 0.0731,0.553151 0.048,0.599924 -0.32117,0.599924 -0.39385,0 -0.39965,0.01906 -0.35301,1.159854 0.0457,1.117994 0.062,1.159854 0.45094,1.159854 0.38584,0 0.4056,0.04729 0.45123,1.079868 0.047,1.062759 0.0412,1.079858 -0.36316,1.079858 -0.38227,0 -0.41104,0.05291 -0.41309,0.759906 -10e-4,0.417948 -0.0444,0.915988 -0.0961,1.106747 -0.0746,0.275627 -0.0162,0.357731 0.28466,0.399948 0.30017,0.04207 0.38944,0.166791 0.4313,0.602293 0.029,0.302052 0.008,0.787993 -0.0477,1.079868 -0.0794,0.419458 -0.17877,0.530684 -0.47416,0.530684 -0.3303,0 -0.38554,0.09757 -0.47549,0.83989 -0.15748,1.299455 -0.14052,1.39983 0.23654,1.39983 0.31489,0 0.33263,0.0585 0.23053,0.7599 -0.20543,1.41125 -0.25328,1.51339 -0.66147,1.41185 -0.34095,-0.0848 -0.38718,-0.0172 -0.56328,0.82358 -0.10552,0.50379 -0.22489,1.00129 -0.26527,1.1056 -0.0404,0.10428 0.0771,0.23697 0.26107,0.29484 0.40192,0.12644 0.40574,0.19143 0.077,1.3124 -0.22666,0.77281 -0.29963,0.86755 -0.60891,0.79061 -0.30849,-0.0768 -0.39529,0.034 -0.71094,0.90637 -0.42417,1.17242 -0.43048,1.23377 -0.1269,1.23377 0.40339,0 0.41263,0.24601 0.0446,1.18533 -0.31481,0.80332 -0.4037,0.90457 -0.73948,0.84243 -0.33306,-0.0616 -0.43983,0.0544 -0.83832,0.91055 -0.44407,0.95414 -0.44816,0.98714 -0.1486,1.19693 0.29888,0.20932 0.29369,0.24393 -0.17455,1.16331 -0.42798,0.84035 -0.51818,0.92871 -0.79712,0.78074 -0.26892,-0.14265 -0.36996,-0.0793 -0.69679,0.43648 -0.77811,1.2281 -0.80991,1.32884 -0.49222,1.55911 0.27124,0.19658 0.25106,0.26665 -0.32392,1.12499 -0.45063,0.67272 -0.66084,0.86811 -0.79298,0.73713 -0.29124,-0.28866 -0.38753,-0.22359 -1.07305,0.72529 -0.59281,0.82054 -0.6278,0.9216 -0.38101,1.10047 0.30091,0.21809 0.22914,0.37644 -0.64853,1.43088 -0.35465,0.42609 -0.42467,0.45128 -0.67706,0.24367 -0.25474,-0.20955 -0.3483,-0.15587 -0.98419,0.56463 -0.68357,0.77455 -0.8767,1.19616 -0.54793,1.19616 0.35126,0 0.12661,0.44717 -0.56035,1.11543 -0.68154,0.66296 -0.73828,0.68729 -1.01798,0.4364 -0.28,-0.25116 -0.33908,-0.22254 -1.08008,0.52313 -0.69409,0.69845 -0.75817,0.81952 -0.55945,1.05684 0.19929,0.23801 0.13462,0.34526 -0.57753,0.95761 -0.73926,0.63567 -0.82387,0.66992 -1.08236,0.43805 -0.2582,-0.2316 -0.35217,-0.19781 -1.18692,0.42688 -0.65704,0.49168 -0.85786,0.72663 -0.72971,0.85365 0.32107,0.31824 0.18637,0.53962 -0.6721,1.10459 -0.81155,0.53407 -0.85951,0.54575 -1.08948,0.26518 -0.23005,-0.28068 -0.28106,-0.26861 -1.16767,0.27616 -0.79386,0.48777 -0.90406,0.61236 -0.76667,0.86681 0.22884,0.42382 0.24932,0.3979 -0.76113,0.96314 -0.92081,0.51509 -0.92176,0.51523 -1.14573,0.18091 l -0.22415,-0.33462 -0.96754,0.4841 c -0.87123,0.43592 -0.95753,0.52361 -0.86704,0.88096 0.0908,0.35858 0.014,0.43475 -0.79662,0.79008 -1.03865,0.45528 -1.2107,0.47841 -1.2107,0.16272 0,-0.40505 -0.26651,-0.4165 -1.28012,-0.0551 -0.93184,0.33232 -0.9846,0.3784 -0.89526,0.78161 0.0898,0.40525 0.0403,0.44675 -0.9133,0.76596 -1.02162,0.34197 -1.2599,0.29265 -1.26676,-0.26216 -0.003,-0.25123 0.023,-0.25281 -1.1486,0.0701 -0.92955,0.25616 -0.97648,0.29284 -0.91404,0.71448 0.0627,0.4234 0.0234,0.45319 -0.82936,0.62867 -0.49235,0.1013 -0.97887,0.21603 -1.08116,0.25493 -0.10229,0.0389 -0.23464,-0.12141 -0.29411,-0.35625 -0.10567,-0.4173 -0.1287,-0.42444 -1.01364,-0.31486 -1.27552,0.15796 -1.34035,0.19678 -1.23129,0.73724 0.0836,0.41408 0.0497,0.46547 -0.30724,0.46547 -0.22063,0 -0.73243,0.045 -1.13733,0.10001 -0.71849,0.0976 -0.73745,0.089 -0.7892,-0.35996 -0.0292,-0.25297 -0.10749,-0.44197 -0.17407,-0.41997 -0.0666,0.022 -0.55684,0.04 -1.08948,0.04 -0.96046,0 -0.96842,0.004 -0.96842,0.46282 0,0.55511 -0.21489,0.65704 -1.38514,0.65704 -0.86409,0 -0.87452,-0.006 -0.87452,-0.47994 v -0.47994 h -0.96842 c -0.53264,0 -1.0229,-0.018 -1.08948,-0.04 -0.0666,-0.022 -0.14381,0.19396 -0.17163,0.47993 -0.0366,0.37633 -0.12578,0.51177 -0.32281,0.49034 -0.14973,-0.0163 -0.6586,-0.0561 -1.13084,-0.0887 z m 6.98688,-24.44183 c 9.46994,-1.51042 16.62592,-8.18834 18.59695,-17.354598 0.21701,-1.009176 0.29241,-2.061142 0.29241,-4.079496 0,-2.018344 -0.0754,-3.070308 -0.29241,-4.079486 -1.80044,-8.372912 -7.86155,-14.641489 -16.33221,-16.891231 -2.1237,-0.564031 -2.11757,-0.565502 -2.23846,0.533275 -0.53717,4.882489 -1.06632,16.830657 -1.06984,24.156973 l -4.8e-4,0.999882 h -6.61757 -6.61757 l 1e-4,-3.479572 c 1.5e-4,-5.696537 0.42628,-11.896685 1.21961,-17.745205 0.21689,-1.598877 0.39434,-2.990594 0.39434,-3.09269 0,-0.102105 -0.63254,0.147873 -1.40564,0.555511 -5.81208,3.064574 -9.90131,8.481788 -11.29498,14.963057 -0.40923,1.903096 -0.40923,6.255878 0,8.158982 1.96254,9.126758 9.03314,15.755588 18.51116,17.354568 1.71116,0.28868 5.04474,0.28869 6.85459,3e-5 z"
     id="path1-5" />
</svg>
